<svg width="25" height="119" viewBox="0 0 25 119" fill="none" xmlns="http://www.w3.org/2000/svg">
<circle cx="2.5" cy="114" r="2" transform="rotate(180 2.5 114)" fill="#FFF0C3"/>
<circle cx="2.5" cy="106" r="2" transform="rotate(180 2.5 106)" fill="#FFF0C3"/>
<circle cx="2.5" cy="98" r="2" transform="rotate(180 2.5 98)" fill="#FFF0C3"/>
<circle cx="2.5" cy="90" r="2" transform="rotate(180 2.5 90)" fill="#FFF0C3"/>
<circle cx="2.5" cy="82" r="2" transform="rotate(180 2.5 82)" fill="#FFF0C3"/>
<circle cx="2.5" cy="74" r="2" transform="rotate(180 2.5 74)" fill="#FFF0C3"/>
<circle cx="2.5" cy="66" r="2" transform="rotate(180 2.5 66)" fill="#FFF0C3"/>
<circle cx="2.5" cy="58" r="2" transform="rotate(180 2.5 58)" fill="#FFF0C3"/>
<circle cx="2.5" cy="50" r="2" transform="rotate(180 2.5 50)" fill="#FFF0C3"/>
<circle cx="2.5" cy="42" r="2" transform="rotate(180 2.5 42)" fill="#FFF0C3"/>
<circle cx="2.5" cy="34" r="2" transform="rotate(180 2.5 34)" fill="#FFF0C3"/>
<circle cx="2.5" cy="26" r="2" transform="rotate(180 2.5 26)" fill="#FFF0C3"/>
<circle cx="2.5" cy="18" r="2" transform="rotate(180 2.5 18)" fill="#FFF0C3"/>
<circle cx="2.5" cy="10" r="2" transform="rotate(180 2.5 10)" fill="#FFF0C3"/>
<circle cx="2.5" cy="2" r="2" transform="rotate(180 2.5 2)" fill="#FFF0C3"/>
<circle cx="11" cy="2" r="2" transform="rotate(180 11 2)" fill="#FFF0C3"/>
<circle cx="11" cy="114" r="2" transform="rotate(180 11 114)" fill="#FFF0C3"/>
<circle cx="19" cy="2" r="2" transform="rotate(180 19 2)" fill="#FFF0C3"/>
<path d="M25 114L17.5 118.33L17.5 109.67L25 114Z" fill="#FFF0C3"/>
</svg>
