<svg width="25" height="24" viewBox="0 0 25 24" fill="none" xmlns="http://www.w3.org/2000/svg">
<path d="M21.272 10.156L19.904 6.051C19.7056 5.45348 19.3238 4.9337 18.8131 4.56551C18.3024 4.19732 17.6886 3.99944 17.059 4H7.941C7.31139 3.99944 6.69761 4.19732 6.18688 4.56551C5.67615 4.9337 5.29445 5.45348 5.096 6.051L3.728 10.156C3.36461 10.3085 3.05428 10.5648 2.83584 10.8928C2.61741 11.2208 2.50059 11.6059 2.5 12V17C2.5 17.753 2.923 18.402 3.539 18.743C3.526 18.809 3.5 18.869 3.5 18.938V21C3.5 21.2652 3.60536 21.5196 3.79289 21.7071C3.98043 21.8946 4.23478 22 4.5 22H5.5C5.76522 22 6.01957 21.8946 6.20711 21.7071C6.39464 21.5196 6.5 21.2652 6.5 21V19H18.5V21C18.5 21.2652 18.6054 21.5196 18.7929 21.7071C18.9804 21.8946 19.2348 22 19.5 22H20.5C20.7652 22 21.0196 21.8946 21.2071 21.7071C21.3946 21.5196 21.5 21.2652 21.5 21V18.938C21.5 18.869 21.474 18.808 21.461 18.743C21.7744 18.5721 22.0362 18.3202 22.2189 18.0136C22.4017 17.707 22.4988 17.357 22.5 17V12C22.5 11.171 21.992 10.459 21.272 10.156ZM4.5 17V12H20.5L20.502 17H4.5ZM7.941 6H17.058C17.489 6 17.871 6.274 18.007 6.684L19.113 10H5.887L6.992 6.684C7.05835 6.4848 7.18572 6.31153 7.35605 6.18876C7.52638 6.06599 7.73104 5.99995 7.941 6V6Z" fill="#600952"/>
<path d="M7 16C7.82843 16 8.5 15.3284 8.5 14.5C8.5 13.6716 7.82843 13 7 13C6.17157 13 5.5 13.6716 5.5 14.5C5.5 15.3284 6.17157 16 7 16Z" fill="#600952"/>
<path d="M18 16C18.8284 16 19.5 15.3284 19.5 14.5C19.5 13.6716 18.8284 13 18 13C17.1716 13 16.5 13.6716 16.5 14.5C16.5 15.3284 17.1716 16 18 16Z" fill="#600952"/>
</svg>
