<svg width="25" height="24" viewBox="0 0 25 24" fill="none" xmlns="http://www.w3.org/2000/svg">
<path d="M5.5 2H7.5V5H5.5V2ZM9.5 2H11.5V5H9.5V2ZM13.5 2H15.5V5H13.5V2ZM19.5 9H17.5V7H3.5V18C3.5 19.654 4.846 21 6.5 21H14.5C16.154 21 17.5 19.654 17.5 18H19.5C20.603 18 21.5 17.103 21.5 16V11C21.5 9.897 20.603 9 19.5 9ZM15.5 18C15.5 18.2652 15.3946 18.5196 15.2071 18.7071C15.0196 18.8946 14.7652 19 14.5 19H6.5C6.23478 19 5.98043 18.8946 5.79289 18.7071C5.60536 18.5196 5.5 18.2652 5.5 18V9H15.5V18ZM17.5 16V11H19.5L19.502 16H17.5Z" fill="#600952"/>
</svg>
