<svg width="48" height="48" viewBox="0 0 48 48" fill="none" xmlns="http://www.w3.org/2000/svg">
<path d="M8 42H27.24C28.3942 42.0006 29.5347 41.7512 30.5833 41.2688C31.6318 40.7865 32.5634 40.0828 33.314 39.206L43.518 27.302C43.7317 27.0532 43.8809 26.7556 43.9524 26.4355C44.024 26.1154 44.0158 25.7826 43.9284 25.4665C43.8411 25.1504 43.6774 24.8605 43.4516 24.6226C43.2259 24.3846 42.9451 24.2059 42.634 24.102L38.698 22.79C37.7467 22.4808 36.7339 22.4108 35.7491 22.5863C34.7643 22.7617 33.8379 23.1772 33.052 23.796L26.682 28.89L25.448 26.42C24.7869 25.0885 23.7662 23.9688 22.5015 23.1876C21.2367 22.4065 19.7785 21.995 18.292 22H8C5.794 22 4 23.794 4 26V38C4 40.206 5.794 42 8 42ZM8 26H18.292C19.818 26 21.188 26.846 21.87 28.21L22.764 30H14V34H26.028C26.3357 33.9959 26.6383 33.9206 26.912 33.78L26.918 33.778L26.926 33.774H26.932L26.936 33.772H26.944L26.946 33.77C26.964 33.776 26.952 33.768 26.952 33.768C26.972 33.768 26.956 33.766 26.956 33.766H26.958L26.962 33.764L26.968 33.762L26.972 33.76L26.976 33.758L26.982 33.756L26.986 33.754C26.992 33.754 26.988 33.752 26.99 33.752L26.996 33.748L27 33.746L27.004 33.744L27.01 33.742L27.014 33.74H27.016L27.02 33.738H27.022L27.026 33.736L27.03 33.734C27.048 33.732 27.036 33.732 27.036 33.732L27.04 33.73C27.1171 33.6835 27.1906 33.6313 27.26 33.574L35.552 26.94C36.076 26.524 36.798 26.394 37.432 26.606L38.546 26.978L30.28 36.624C29.8998 37.0557 29.4321 37.4017 28.908 37.6389C28.3839 37.8761 27.8153 37.9992 27.24 38H8V26ZM32 3.99999H31.966C31.64 4.00399 29.954 4.07799 28 5.40999C26.098 4.11399 24.452 4.00999 24.064 4.00199L24.004 3.99999H23.996C22.394 3.99999 20.886 4.62599 19.758 5.75599C18.626 6.88999 18 8.39599 18 9.99999C18 11.604 18.626 13.11 19.722 14.208L26.55 21.38C26.7379 21.575 26.9632 21.7301 27.2124 21.836C27.4616 21.9418 27.7296 21.9963 28.0004 21.9961C28.2712 21.9959 28.5392 21.9411 28.7882 21.8349C29.0373 21.7287 29.2624 21.5733 29.45 21.378L36.242 14.242C37.376 13.11 38 11.604 38 9.99999C38 8.39599 37.374 6.88999 36.244 5.75799C35.6887 5.19908 35.028 4.75591 34.3002 4.45414C33.5723 4.15237 32.7919 3.99801 32.004 3.99999H32ZM34 9.99999C34 10.534 33.792 11.036 33.378 11.45L28 17.1L22.586 11.414C22.208 11.036 22 10.534 22 9.99999C22 9.46599 22.208 8.96399 22.588 8.58399C22.9497 8.2161 23.4421 8.00617 23.958 7.99999C24.008 8.00199 24.962 8.06399 26.092 8.96999C26.254 9.09999 26.418 9.24799 26.586 9.41399L28 10.828L29.414 9.41399C29.582 9.24799 29.746 9.09999 29.908 8.96999C30.966 8.11999 31.86 8.01399 32.012 8.00199C32.2727 8.00194 32.5308 8.05352 32.7714 8.15376C33.012 8.25399 33.2304 8.4009 33.414 8.58599C33.792 8.96399 34 9.46599 34 9.99999Z" fill="#600952"/>
</svg>
