<svg width="40" height="41" viewBox="0 0 40 41" fill="none" xmlns="http://www.w3.org/2000/svg">
<path d="M6.66673 35.5001C6.79958 35.5161 6.93388 35.5161 7.06673 35.5001L13.7334 33.8334C14.0291 33.7631 14.3 33.6133 14.5167 33.4001L35.0001 12.8501C35.6209 12.2255 35.9694 11.3807 35.9694 10.5001C35.9694 9.61946 35.6209 8.77462 35.0001 8.15008L32.3667 5.50008C32.0572 5.19016 31.6895 4.9443 31.2849 4.77655C30.8802 4.6088 30.4464 4.52246 30.0084 4.52246C29.5703 4.52246 29.1366 4.6088 28.7319 4.77655C28.3273 4.9443 27.9596 5.19016 27.6501 5.50008L7.16673 25.9834C6.95138 26.2011 6.79631 26.4711 6.71673 26.7668L5.05006 33.4334C4.99016 33.6491 4.9743 33.8746 5.00344 34.0965C5.03258 34.3184 5.10612 34.5322 5.21967 34.725C5.33321 34.9179 5.48444 35.0859 5.66434 35.2191C5.84423 35.3523 6.0491 35.4478 6.26673 35.5001C6.39958 35.5161 6.53388 35.5161 6.66673 35.5001ZM30.0001 7.85008L32.6501 10.5001L30.0001 13.1501L27.3667 10.5001L30.0001 7.85008ZM9.85006 28.0168L25.0001 12.8501L27.6501 15.5001L12.4834 30.6667L8.96673 31.5334L9.85006 28.0168Z" fill="#EDD691"/>
</svg>
