<svg width="24" height="24" viewBox="0 0 24 24" fill="none" xmlns="http://www.w3.org/2000/svg">
<path d="M16.57 21.9999C16.8356 22.0014 17.0988 21.9501 17.3443 21.8488C17.5898 21.7475 17.8127 21.5983 18 21.4099L20.71 18.6999C20.8962 18.5125 21.0008 18.2591 21.0008 17.9949C21.0008 17.7307 20.8962 17.4773 20.71 17.2899L16.71 13.2899C16.5226 13.1036 16.2692 12.9991 16.005 12.9991C15.7408 12.9991 15.4873 13.1036 15.3 13.2899L13.7 14.8799C12.5922 14.5845 11.5663 14.0408 10.7 13.2899C9.95109 12.4222 9.4076 11.3968 9.10997 10.2899L10.7 8.6899C10.8862 8.50253 10.9908 8.24908 10.9908 7.9849C10.9908 7.72071 10.8862 7.46726 10.7 7.2799L6.69997 3.2799C6.51261 3.09365 6.25916 2.9891 5.99497 2.9891C5.73079 2.9891 5.47733 3.09365 5.28997 3.2799L2.58997 5.9999C2.4016 6.18714 2.25242 6.41002 2.15112 6.65555C2.04982 6.90107 1.99844 7.1643 1.99997 7.4299C2.0907 11.2722 3.62605 14.9392 6.29997 17.6999C9.06069 20.3738 12.7277 21.9092 16.57 21.9999ZM5.99997 5.4099L8.58997 7.9999L7.29997 9.2899C7.17779 9.40434 7.0863 9.54763 7.03389 9.70663C6.98147 9.86562 6.96981 10.0352 6.99997 10.1999C7.37374 11.8703 8.16508 13.4185 9.29997 14.6999C10.5803 15.8362 12.129 16.6278 13.8 16.9999C13.9621 17.0338 14.1302 17.0269 14.289 16.9797C14.4479 16.9326 14.5925 16.8468 14.71 16.7299L16 15.4099L18.59 17.9999L16.59 19.9999C13.2737 19.9145 10.1095 18.591 7.71997 16.2899C5.41288 13.8994 4.08558 10.731 3.99997 7.4099L5.99997 5.4099ZM20 10.9999H22C22.0259 9.8109 21.8108 8.62895 21.3677 7.5253C20.9246 6.42165 20.2626 5.41914 19.4217 4.57819C18.5807 3.73724 17.5782 3.07526 16.4746 2.63215C15.3709 2.18904 14.189 1.97397 13 1.9999V3.9999C13.9279 3.9678 14.8525 4.12691 15.7163 4.46733C16.5801 4.80775 17.3646 5.32222 18.0211 5.97874C18.6777 6.63526 19.1921 7.4198 19.5325 8.2836C19.873 9.1474 20.0321 10.072 20 10.9999Z" fill="white"/>
<path d="M13 8C15.1 8 16 8.9 16 11H18C18 7.78 16.22 6 13 6V8Z" fill="white"/>
</svg>
