<svg width="48" height="48" viewBox="0 0 48 48" fill="none" xmlns="http://www.w3.org/2000/svg">
<path d="M41.574 18.046C41.324 18.1 37.968 18.882 33.668 21.594C33.022 18.46 31.11 12.592 25.452 6.624L24 5.092L22.548 6.626C16.87 12.616 14.966 18.5 14.326 21.654C10.01 18.896 6.68 18.104 6.436 18.048L4 17.504V20C4 34.58 11.85 44 24 44C35.962 44 44 34.356 44 20V17.516L41.574 18.046ZM17.998 24.076C18.002 24.01 18.302 17.876 24 11.012C29.628 17.812 29.998 24 30 24V24.25C27.7571 26.1138 25.7371 28.2305 23.98 30.558C22.218 28.2716 20.2121 26.184 17.998 24.332V24.076ZM24 40C13.368 40 8.902 31.608 8.126 22.872C11.436 24.308 17.358 27.724 22.34 35.118L24.022 37.616L25.672 35.096C30.524 27.68 36.522 24.274 39.864 22.852C39.068 31.308 34.608 40 24 40Z" fill="#600952"/>
</svg>
