<svg width="48" height="48" viewBox="0 0 48 48" fill="none" xmlns="http://www.w3.org/2000/svg">
<path d="M29.688 40H13C10.242 40 8 37.758 8 35C8 32.242 10.242 30 13 30H27C30.86 30 34 26.86 34 23C34 19.14 30.86 16 27 16H17.278C16.5435 17.4398 15.6339 18.7833 14.57 20H27C28.654 20 30 21.346 30 23C30 24.654 28.654 26 27 26H13C8.038 26 4 30.038 4 35C4 39.962 8.038 44 13 44H32.186C31.2046 42.7655 30.3666 41.4236 29.688 40ZM10 4C6.692 4 4 6.692 4 10C4 16.376 10 20 10 20C10 20 16 16.374 16 10C16 6.692 13.308 4 10 4ZM10 13C9.6059 12.9999 9.21569 12.9221 8.85164 12.7712C8.4876 12.6202 8.15684 12.3991 7.87827 12.1203C7.59969 11.8416 7.37875 11.5107 7.22806 11.1465C7.07736 10.7824 6.99987 10.3921 7 9.998C7.00013 9.6039 7.07788 9.21369 7.22882 8.84964C7.37976 8.48559 7.60092 8.15484 7.87968 7.87627C8.15844 7.59769 8.48934 7.37675 8.85349 7.22605C9.21764 7.07536 9.6079 6.99787 10.002 6.998C10.7979 6.99827 11.5611 7.3147 12.1237 7.87768C12.6863 8.44066 13.0023 9.20409 13.002 10C13.0017 10.7959 12.6853 11.5591 12.1223 12.1217C11.5593 12.6843 10.7959 13.0003 10 13Z" fill="#600952"/>
<path d="M38 28C34.692 28 32 30.692 32 34C32 40.376 38 44 38 44C38 44 44 40.374 44 34C44 30.692 41.308 28 38 28ZM38 37C37.6059 36.9999 37.2157 36.9221 36.8516 36.7712C36.4876 36.6202 36.1568 36.3991 35.8783 36.1203C35.5997 35.8416 35.3787 35.5107 35.2281 35.1465C35.0774 34.7824 34.9999 34.3921 35 33.998C35.0001 33.6039 35.0779 33.2137 35.2288 32.8496C35.3798 32.4856 35.6009 32.1548 35.8797 31.8763C36.1584 31.5977 36.4893 31.3767 36.8535 31.2261C37.2176 31.0754 37.6079 30.9979 38.002 30.998C38.7979 30.9983 39.5611 31.3147 40.1237 31.8777C40.6863 32.4407 41.0023 33.2041 41.002 34C41.0017 34.7959 40.6853 35.5591 40.1223 36.1217C39.5593 36.6843 38.7959 37.0003 38 37Z" fill="#600952"/>
</svg>
