<svg width="40" height="41" viewBox="0 0 40 41" fill="none" xmlns="http://www.w3.org/2000/svg">
<path fill-rule="evenodd" clip-rule="evenodd" d="M30.6717 9.88838C29.2856 8.49319 27.6364 7.38691 25.8198 6.63363C24.0031 5.88035 22.055 5.49505 20.0883 5.50005C11.8417 5.50005 5.12833 12.2117 5.125 20.4617C5.125 23.0984 5.81333 25.6717 7.12167 27.9417L5 35.6934L12.9317 33.6117C15.1257 34.806 17.5837 35.4323 20.0817 35.4334H20.0883C28.3333 35.4334 35.0467 28.7217 35.05 20.4717C35.0557 18.5059 34.6716 16.5584 33.9201 14.7418C33.1686 12.9253 32.0645 11.2757 30.6717 9.88838ZM20.0883 32.9084H20.0833C17.8559 32.9086 15.6694 32.3093 13.7533 31.1734L13.3 30.9034L8.59333 32.1384L9.84833 27.55L9.55333 27.08C8.30798 25.0974 7.64872 22.803 7.65167 20.4617C7.655 13.605 13.2333 8.02671 20.0933 8.02671C21.7271 8.02308 23.3453 8.34352 24.8544 8.96947C26.3635 9.59542 27.7335 10.5145 28.885 11.6734C30.0427 12.8268 30.9603 14.1982 31.5848 15.7084C32.2093 17.2186 32.5283 18.8375 32.5233 20.4717C32.52 27.3284 26.9417 32.9084 20.0883 32.9084ZM26.91 23.5934C26.535 23.405 24.6983 22.5017 24.355 22.3767C24.0133 22.2517 23.765 22.19 23.515 22.5634C23.265 22.9367 22.5483 23.7784 22.33 24.0284C22.1117 24.2784 21.8933 24.3084 21.52 24.1217C21.1467 23.935 19.9417 23.54 18.5133 22.2667C17.4017 21.275 16.6517 20.0517 16.4333 19.6767C16.215 19.3017 16.41 19.1 16.5983 18.9134C16.7667 18.7467 16.9717 18.4767 17.1583 18.2584C17.345 18.04 17.4067 17.885 17.5317 17.635C17.6567 17.385 17.595 17.1667 17.5 16.98C17.4067 16.7917 16.6583 14.9517 16.3467 14.2034C16.045 13.4784 15.7367 13.575 15.5067 13.565C15.2685 13.5553 15.0301 13.5509 14.7917 13.5517C14.6021 13.5565 14.4156 13.6005 14.2438 13.6808C14.072 13.7611 13.9186 13.876 13.7933 14.0184C13.45 14.3934 12.485 15.2967 12.485 17.1367C12.485 18.9767 13.825 20.755 14.0117 21.005C14.1983 21.255 16.6483 25.03 20.3983 26.65C21.2917 27.035 21.9883 27.265 22.53 27.4384C23.425 27.7234 24.24 27.6817 24.885 27.5867C25.6033 27.48 27.0967 26.6834 27.4083 25.81C27.72 24.9367 27.72 24.1884 27.6267 24.0317C27.5333 23.875 27.2817 23.78 26.91 23.5934Z" fill="#EDD691"/>
</svg>
