<svg width="278" height="288" viewBox="0 0 278 288" fill="none" xmlns="http://www.w3.org/2000/svg">
<path d="M8.87834 0.0175781H53.9822V2.269C46.8804 2.269 43.526 3.58357 43.6469 20.9754C43.7073 29.1651 43.6469 222.424 43.6469 222.424C77.2821 221.714 162.428 259.807 195.973 263.962C246.335 270.188 254.524 240.118 254.524 240.118C246.335 278.196 218.048 284.723 201.503 284.905C184.957 285.086 181.391 282.064 159.859 275.824C138.327 269.598 49.1621 237.565 27.6301 237.565C6.09807 237.565 0.220215 252.161 0.220215 252.161C0.220215 234.543 21.042 225.295 21.042 225.295V22.9548C21.042 4.12756 8.87834 2.269 8.87834 2.269V0.0326915V0.0175781Z" fill="white"/>
<path d="M62.5175 0.0152588V2.26668C62.5175 2.26668 75.8901 1.45072 75.8901 11.4839C75.8901 21.517 75.8901 179.177 75.8901 196.191C75.8901 213.205 77.2802 223.208 102.635 230.702V0.0152588H62.5024H62.5175Z" fill="white"/>
<path d="M125.605 0.0012207C125.605 0.0012207 126.845 5.50132 137.981 5.39555C142.876 5.35022 152.728 5.39555 157.412 5.39555C180.501 5.39555 232.661 39.5143 232.661 126.368C232.661 126.368 231.059 253.263 128.552 238.485C128.552 238.485 137.845 241.16 153.907 244.287C153.907 244.287 277.856 238.485 277.856 126.201C277.856 73.8749 239.582 0.0163341 151.142 0.0163341H125.605V0.0012207Z" fill="white"/>
<path d="M33.4344 288C43.4736 288 51.6119 279.862 51.6119 269.823C51.6119 259.784 43.4736 251.645 33.4344 251.645C23.3952 251.645 15.2568 259.784 15.2568 269.823C15.2568 279.862 23.3952 288 33.4344 288Z" fill="white"/>
</svg>
