<svg width="65" height="65" viewBox="0 0 65 65" fill="none" xmlns="http://www.w3.org/2000/svg">
<g clip-path="url(#clip0_27_200)">
<mask id="mask0_27_200" style="mask-type:luminance" maskUnits="userSpaceOnUse" x="1" y="0" width="64" height="65">
<path d="M63.3182 26.6818H33.5V39.0455H50.6637C49.0637 46.9 42.3727 51.4091 33.5 51.4091C23.0273 51.4091 14.5909 42.9727 14.5909 32.5C14.5909 22.0273 23.0273 13.5909 33.5 13.5909C38.0091 13.5909 42.0818 15.1909 45.2818 17.8091L54.5909 8.5C48.9182 3.55455 41.6455 0.5 33.5 0.5C15.7546 0.5 1.5 14.7546 1.5 32.5C1.5 50.2455 15.7546 64.5 33.5 64.5C49.5 64.5 64.0455 52.8637 64.0455 32.5C64.0455 30.6091 63.7546 28.5727 63.3182 26.6818Z" fill="white"/>
</mask>
<g mask="url(#mask0_27_200)">
<path d="M-1.40918 51.409V13.5908L23.3181 32.4999L-1.40918 51.409Z" fill="#FBBC05"/>
</g>
<mask id="mask1_27_200" style="mask-type:luminance" maskUnits="userSpaceOnUse" x="1" y="0" width="64" height="65">
<path d="M63.3182 26.6818H33.5V39.0455H50.6637C49.0637 46.9 42.3727 51.4091 33.5 51.4091C23.0273 51.4091 14.5909 42.9727 14.5909 32.5C14.5909 22.0273 23.0273 13.5909 33.5 13.5909C38.0091 13.5909 42.0818 15.1909 45.2818 17.8091L54.5909 8.5C48.9182 3.55455 41.6455 0.5 33.5 0.5C15.7546 0.5 1.5 14.7546 1.5 32.5C1.5 50.2455 15.7546 64.5 33.5 64.5C49.5 64.5 64.0455 52.8637 64.0455 32.5C64.0455 30.6091 63.7546 28.5727 63.3182 26.6818Z" fill="white"/>
</mask>
<g mask="url(#mask1_27_200)">
<path d="M-1.40918 13.5908L23.3181 32.4999L33.4999 23.6272L68.409 17.9545V-2.40918H-1.40918V13.5908Z" fill="#EA4335"/>
</g>
<mask id="mask2_27_200" style="mask-type:luminance" maskUnits="userSpaceOnUse" x="1" y="0" width="64" height="65">
<path d="M63.3182 26.6818H33.5V39.0455H50.6637C49.0637 46.9 42.3727 51.4091 33.5 51.4091C23.0273 51.4091 14.5909 42.9727 14.5909 32.5C14.5909 22.0273 23.0273 13.5909 33.5 13.5909C38.0091 13.5909 42.0818 15.1909 45.2818 17.8091L54.5909 8.5C48.9182 3.55455 41.6455 0.5 33.5 0.5C15.7546 0.5 1.5 14.7546 1.5 32.5C1.5 50.2455 15.7546 64.5 33.5 64.5C49.5 64.5 64.0455 52.8637 64.0455 32.5C64.0455 30.6091 63.7546 28.5727 63.3182 26.6818Z" fill="white"/>
</mask>
<g mask="url(#mask2_27_200)">
<path d="M-1.40918 51.409L42.2272 17.9545L53.7181 19.409L68.409 -2.40918V67.409H-1.40918V51.409Z" fill="#34A853"/>
</g>
<mask id="mask3_27_200" style="mask-type:luminance" maskUnits="userSpaceOnUse" x="1" y="0" width="64" height="65">
<path d="M63.3182 26.6818H33.5V39.0455H50.6637C49.0637 46.9 42.3727 51.4091 33.5 51.4091C23.0273 51.4091 14.5909 42.9727 14.5909 32.5C14.5909 22.0273 23.0273 13.5909 33.5 13.5909C38.0091 13.5909 42.0818 15.1909 45.2818 17.8091L54.5909 8.5C48.9182 3.55455 41.6455 0.5 33.5 0.5C15.7546 0.5 1.5 14.7546 1.5 32.5C1.5 50.2455 15.7546 64.5 33.5 64.5C49.5 64.5 64.0455 52.8637 64.0455 32.5C64.0455 30.6091 63.7546 28.5727 63.3182 26.6818Z" fill="white"/>
</mask>
<g mask="url(#mask3_27_200)">
<path d="M68.4091 67.409L23.3182 32.4999L17.5 28.1363L68.4091 13.5908V67.409Z" fill="#4285F4"/>
</g>
</g>
<defs>
<clipPath id="clip0_27_200">
<rect width="64" height="64" fill="white" transform="translate(0.5 0.5)"/>
</clipPath>
</defs>
</svg>
