<svg width="65" height="65" viewBox="0 0 65 65" fill="none" xmlns="http://www.w3.org/2000/svg">
<path d="M4.5 14.1C4.5 10.7397 4.5 9.05953 5.15396 7.77606C5.7292 6.64708 6.64708 5.7292 7.77606 5.15396C9.05953 4.5 10.7397 4.5 14.1 4.5H50.9C54.2603 4.5 55.9405 4.5 57.2239 5.15396C58.3529 5.7292 59.2708 6.64708 59.846 7.77606C60.5 9.05953 60.5 10.7397 60.5 14.1V50.9C60.5 54.2603 60.5 55.9405 59.846 57.2239C59.2708 58.3529 58.3529 59.2708 57.2239 59.846C55.9405 60.5 54.2603 60.5 50.9 60.5H14.1C10.7397 60.5 9.05953 60.5 7.77606 59.846C6.64708 59.2708 5.7292 58.3529 5.15396 57.2239C4.5 55.9405 4.5 54.2603 4.5 50.9V14.1Z" fill="url(#paint0_radial_50_31)"/>
<rect x="4.5" y="4.5" width="56" height="56" rx="6" fill="url(#paint1_radial_50_31)"/>
<rect x="4.5" y="4.5" width="56" height="56" rx="6" fill="url(#paint2_radial_50_31)"/>
<path d="M46.5 21.5C46.5 23.1569 45.1569 24.5 43.5 24.5C41.8431 24.5 40.5 23.1569 40.5 21.5C40.5 19.8431 41.8431 18.5 43.5 18.5C45.1569 18.5 46.5 19.8431 46.5 21.5Z" fill="white"/>
<path fill-rule="evenodd" clip-rule="evenodd" d="M32.5 42.5C38.0228 42.5 42.5 38.0228 42.5 32.5C42.5 26.9772 38.0228 22.5 32.5 22.5C26.9772 22.5 22.5 26.9772 22.5 32.5C22.5 38.0228 26.9772 42.5 32.5 42.5ZM32.5 38.5C35.8137 38.5 38.5 35.8137 38.5 32.5C38.5 29.1863 35.8137 26.5 32.5 26.5C29.1863 26.5 26.5 29.1863 26.5 32.5C26.5 35.8137 29.1863 38.5 32.5 38.5Z" fill="white"/>
<path fill-rule="evenodd" clip-rule="evenodd" d="M12.5 31.7C12.5 24.9794 12.5 21.6191 13.8079 19.0521C14.9584 16.7942 16.7942 14.9584 19.0521 13.8079C21.6191 12.5 24.9794 12.5 31.7 12.5H33.3C40.0206 12.5 43.3809 12.5 45.9479 13.8079C48.2058 14.9584 50.0416 16.7942 51.1921 19.0521C52.5 21.6191 52.5 24.9794 52.5 31.7V33.3C52.5 40.0206 52.5 43.3809 51.1921 45.9479C50.0416 48.2058 48.2058 50.0416 45.9479 51.1921C43.3809 52.5 40.0206 52.5 33.3 52.5H31.7C24.9794 52.5 21.6191 52.5 19.0521 51.1921C16.7942 50.0416 14.9584 48.2058 13.8079 45.9479C12.5 43.3809 12.5 40.0206 12.5 33.3V31.7ZM31.7 16.5H33.3C36.7263 16.5 39.0555 16.5031 40.8558 16.6502C42.6095 16.7935 43.5063 17.0532 44.1319 17.3719C45.6372 18.1389 46.8611 19.3628 47.6281 20.8681C47.9468 21.4937 48.2065 22.3905 48.3498 24.1442C48.4969 25.9445 48.5 28.2737 48.5 31.7V33.3C48.5 36.7263 48.4969 39.0555 48.3498 40.8558C48.2065 42.6095 47.9468 43.5063 47.6281 44.1319C46.8611 45.6372 45.6372 46.8611 44.1319 47.6281C43.5063 47.9468 42.6095 48.2065 40.8558 48.3498C39.0555 48.4969 36.7263 48.5 33.3 48.5H31.7C28.2737 48.5 25.9445 48.4969 24.1442 48.3498C22.3905 48.2065 21.4937 47.9468 20.8681 47.6281C19.3628 46.8611 18.1389 45.6372 17.3719 44.1319C17.0532 43.5063 16.7935 42.6095 16.6502 40.8558C16.5031 39.0555 16.5 36.7263 16.5 33.3V31.7C16.5 28.2737 16.5031 25.9445 16.6502 24.1442C16.7935 22.3905 17.0532 21.4937 17.3719 20.8681C18.1389 19.3628 19.3628 18.1389 20.8681 17.3719C21.4937 17.0532 22.3905 16.7935 24.1442 16.6502C25.9445 16.5031 28.2737 16.5 31.7 16.5Z" fill="white"/>
<defs>
<radialGradient id="paint0_radial_50_31" cx="0" cy="0" r="1" gradientUnits="userSpaceOnUse" gradientTransform="translate(24.5 46.5) rotate(-55.3758) scale(51.0392)">
<stop stop-color="#B13589"/>
<stop offset="0.79309" stop-color="#C62F94"/>
<stop offset="1" stop-color="#8A3AC8"/>
</radialGradient>
<radialGradient id="paint1_radial_50_31" cx="0" cy="0" r="1" gradientUnits="userSpaceOnUse" gradientTransform="translate(22.5 62.5) rotate(-65.1363) scale(45.1885)">
<stop stop-color="#E0E8B7"/>
<stop offset="0.444662" stop-color="#FB8A2E"/>
<stop offset="0.71474" stop-color="#E2425C"/>
<stop offset="1" stop-color="#E2425C" stop-opacity="0"/>
</radialGradient>
<radialGradient id="paint2_radial_50_31" cx="0" cy="0" r="1" gradientUnits="userSpaceOnUse" gradientTransform="translate(1.5 6.5) rotate(-8.1301) scale(77.7817 16.6367)">
<stop offset="0.156701" stop-color="#406ADC"/>
<stop offset="0.467799" stop-color="#6A45BE"/>
<stop offset="1" stop-color="#6A45BE" stop-opacity="0"/>
</radialGradient>
</defs>
</svg>
