<svg width="200" height="48" viewBox="0 0 200 48" fill="none" xmlns="http://www.w3.org/2000/svg">
<path d="M1.44675 0.222168H8.98351V0.589588C7.79682 0.589588 7.2363 0.804118 7.25649 3.64237C7.26659 4.97888 7.25649 36.5177 7.25649 36.5177C12.8769 36.4018 27.1045 42.6183 32.7098 43.2965C41.1252 44.3124 42.4937 39.4053 42.4937 39.4053C41.1252 45.6193 36.3986 46.6846 33.6339 46.7142C30.8691 46.7438 30.2733 46.2506 26.6753 45.2322C23.0774 44.2162 8.17807 38.9885 4.58012 38.9885C0.982176 38.9885 0 41.3706 0 41.3706C0 38.4954 3.47928 36.9862 3.47928 36.9862V3.9654C3.47928 0.892894 1.44675 0.589588 1.44675 0.589588V0.224634V0.222168Z" fill="#2B2B2B"/>
<path d="M10.4102 0.222412V0.589832C10.4102 0.589832 12.6448 0.456671 12.6448 2.09403C12.6448 3.73138 12.6448 29.4605 12.6448 32.2371C12.6448 35.0137 12.877 36.6462 17.1138 37.8693V0.222412H10.4077H10.4102Z" fill="#2B2B2B"/>
<path d="M20.9509 0.219727C20.9509 0.219727 21.158 1.11731 23.0188 1.10005C23.8369 1.09265 25.4831 1.10005 26.2658 1.10005C30.1238 1.10005 38.8397 6.66805 38.8397 20.842C38.8397 20.842 38.572 41.5506 21.4433 39.139C21.4433 39.139 22.9961 39.5754 25.68 40.0859C25.68 40.0859 46.3916 39.139 46.3916 20.8149C46.3916 12.2755 39.9961 0.222193 25.218 0.222193H20.9509V0.219727Z" fill="#2B2B2B"/>
<path d="M5.54988 47.2198C7.2274 47.2198 8.5873 45.8917 8.5873 44.2533C8.5873 42.615 7.2274 41.2869 5.54988 41.2869C3.87235 41.2869 2.51245 42.615 2.51245 44.2533C2.51245 45.8917 3.87235 47.2198 5.54988 47.2198Z" fill="#643359"/>
<path d="M63.7395 24.1921H72.0326V24.9324H60.9751V8.35772H63.7395V24.1921ZM74.3459 24.9324V8.35772H77.1103V24.9324H74.3459ZM86.4443 11.631L83.252 18.4899H89.6367L86.4443 11.631ZM82.905 19.2186L80.2448 24.9324H79.4351L87.1615 8.35772H87.9711L95.6975 24.9324H92.6439L89.9837 19.2186H82.905ZM118.738 16.6508C118.738 18.1699 118.364 19.5579 117.616 20.8147C116.868 22.0639 115.865 23.0625 114.609 23.8104C113.359 24.5584 111.971 24.9324 110.445 24.9324H103.794V8.35772H110.445C111.971 8.35772 113.359 8.7317 114.609 9.47966C115.865 10.2276 116.868 11.23 117.616 12.4869C118.364 13.7361 118.738 15.1241 118.738 16.6508ZM106.558 24.1921H109.346C110.425 24.1921 111.378 23.9878 112.203 23.5791C113.028 23.1704 113.718 22.6152 114.273 21.9135C114.836 21.2118 115.26 20.4061 115.545 19.4962C115.831 18.5863 115.973 17.634 115.973 16.6393C115.973 15.2513 115.707 13.9867 115.175 12.8455C114.651 11.7043 113.895 10.7944 112.908 10.1158C111.921 9.42954 110.734 9.0864 109.346 9.0864H106.558V24.1921ZM125.284 11.631L122.092 18.4899H128.477L125.284 11.631ZM121.745 19.2186L119.085 24.9324H118.275L126.001 8.35772H126.811L134.537 24.9324H131.484L128.824 19.2186H121.745ZM137.66 8.35772L150.407 21.0923V8.35772H151.135V24.9324H150.326L137.591 12.1862V24.9324H136.851V8.35772H137.66ZM168.207 8.35772V9.0864H161.985V24.9324H159.22V9.0864H152.997V8.35772H168.207ZM171.989 11.631L168.797 18.4899H175.182L171.989 11.631ZM168.45 19.2186L165.79 24.9324H164.98L172.707 8.35772H173.516L181.243 24.9324H178.189L175.529 19.2186H168.45ZM194.301 10.671C193.892 10.3471 193.464 10.0657 193.017 9.82665C192.423 9.5105 191.803 9.27532 191.155 9.1211C190.523 8.9823 189.883 8.9129 189.235 8.9129H188.957C188.564 8.9129 188.171 8.95917 187.778 9.0517C187.392 9.14423 187.026 9.29074 186.679 9.49122C186.409 9.64544 186.166 9.83822 185.95 10.0695C185.742 10.3009 185.592 10.5708 185.499 10.8792C185.453 11.072 185.43 11.2609 185.43 11.4459C185.43 11.5385 185.441 11.6773 185.464 11.8623C185.495 12.0474 185.58 12.2672 185.719 12.5216C185.919 12.8763 186.174 13.2002 186.482 13.4932C186.791 13.7862 187.114 14.0407 187.454 14.2566C188.101 14.6653 188.765 15.047 189.443 15.4017C189.536 15.4556 189.624 15.5058 189.709 15.552C190.203 15.8142 190.688 16.0841 191.167 16.3617C191.645 16.6316 192.107 16.9284 192.555 17.2523C192.917 17.5145 193.256 17.8113 193.572 18.1429C193.889 18.4668 194.155 18.8253 194.37 19.2186C194.679 19.766 194.833 20.3482 194.833 20.9651C194.833 21.0422 194.829 21.1232 194.822 21.208C194.783 21.7169 194.644 22.1988 194.405 22.6538C194.182 23.0779 193.892 23.4519 193.538 23.7757C193.183 24.0919 192.79 24.3541 192.358 24.5622C191.857 24.8167 191.325 25.0018 190.762 25.1174C190.207 25.2331 189.648 25.2948 189.085 25.3025H188.819C188.263 25.3025 187.712 25.2639 187.165 25.1868C186.548 25.102 185.946 24.9555 185.36 24.7473C184.342 24.3849 183.433 23.8451 182.631 23.128L183.151 22.6075C183.552 22.9314 183.98 23.2128 184.435 23.4519C185.021 23.768 185.642 24.0032 186.297 24.1574C186.96 24.3039 187.631 24.3772 188.31 24.3772H188.495C188.888 24.3695 189.277 24.3194 189.663 24.2268C190.056 24.1343 190.426 23.9878 190.773 23.7873C191.043 23.6331 191.282 23.4403 191.49 23.209C191.699 22.9777 191.853 22.7078 191.953 22.3993C192.007 22.222 192.034 22.0485 192.034 21.8788C192.034 21.7709 192.019 21.6205 191.988 21.4278C191.957 21.235 191.872 21.0114 191.733 20.7569C191.533 20.4022 191.278 20.0822 190.97 19.7969C190.662 19.5039 190.334 19.2456 189.987 19.0219C189.347 18.6133 188.688 18.2316 188.009 17.8769C187.916 17.8229 187.82 17.7689 187.72 17.7149C187.234 17.4605 186.752 17.1983 186.274 16.9284C185.804 16.6508 185.345 16.3501 184.898 16.0262C184.535 15.7641 184.196 15.4711 183.88 15.1472C183.564 14.8156 183.298 14.4532 183.082 14.06C182.781 13.5125 182.631 12.9303 182.631 12.3134C182.631 12.2363 182.631 12.1554 182.631 12.0705C182.669 11.5616 182.804 11.0797 183.035 10.6247C183.267 10.2006 183.556 9.8305 183.903 9.51436C184.258 9.1905 184.651 8.92447 185.083 8.71627C185.592 8.46181 186.124 8.27675 186.679 8.16109C187.234 8.04542 187.797 7.98374 188.368 7.97602H188.645C189.193 7.97602 189.736 8.01458 190.276 8.09169C190.893 8.17651 191.498 8.32302 192.092 8.53121C193.102 8.89363 194.012 9.43339 194.822 10.1505L194.301 10.671Z" fill="#2B2B2B"/>
<path d="M61.4697 38.3308V31.4218H64.2826C65.0196 31.4218 65.6644 31.5699 66.2171 31.866C66.7764 32.1555 67.2107 32.5602 67.52 33.08C67.8292 33.5998 67.9839 34.1986 67.9839 34.8763C67.9839 35.5541 67.8292 36.1528 67.52 36.6727C67.2107 37.1925 66.7764 37.6004 66.2171 37.8965C65.6644 38.1861 65.0196 38.3308 64.2826 38.3308H61.4697ZM62.2 37.6991H64.2431C64.8551 37.6991 65.3848 37.5807 65.8322 37.3438C66.2862 37.1004 66.6383 36.7681 66.8883 36.3469C67.1383 35.9192 67.2634 35.429 67.2634 34.8763C67.2634 34.317 67.1383 33.8268 66.8883 33.4057C66.6383 32.9846 66.2862 32.6556 65.8322 32.4187C65.3848 32.1752 64.8551 32.0535 64.2431 32.0535H62.2V37.6991ZM73.3351 34.5111H76.987V35.1329H73.3351V34.5111ZM73.4141 37.6991H77.5693V38.3308H72.6837V31.4218H77.4213V32.0535H73.4141V37.6991ZM82.3459 38.3308V31.4218H84.9318C85.5174 31.4218 86.0208 31.5172 86.4419 31.708C86.863 31.8923 87.1855 32.1621 87.4092 32.5174C87.6395 32.8661 87.7546 33.2905 87.7546 33.7906C87.7546 34.2775 87.6395 34.6987 87.4092 35.054C87.1855 35.4027 86.863 35.6725 86.4419 35.8633C86.0208 36.0476 85.5174 36.1397 84.9318 36.1397H82.7505L83.0762 35.8041V38.3308H82.3459ZM87.0637 38.3308L85.2871 35.8238H86.0767L87.8632 38.3308H87.0637ZM83.0762 35.8633L82.7505 35.5179H84.9121C85.603 35.5179 86.1261 35.3665 86.4814 35.0638C86.8433 34.7612 87.0242 34.3368 87.0242 33.7906C87.0242 33.2379 86.8433 32.8102 86.4814 32.5075C86.1261 32.2048 85.603 32.0535 84.9121 32.0535H82.7505L83.0762 31.708V35.8633ZM92.5382 38.3308V31.4218H93.1402L96.2986 36.8108H95.9828L99.1116 31.4218H99.7137V38.3308H99.0129V32.5174H99.1807L96.2986 37.4524H95.9532L93.0514 32.5174H93.2389V38.3308H92.5382ZM103.919 38.3308L107.077 31.4218H107.798L110.956 38.3308H110.187L107.285 31.8462H107.581L104.679 38.3308H103.919ZM105.163 36.4851L105.38 35.8929H109.397L109.614 36.4851H105.163ZM116.154 38.3308V32.0535H113.726V31.4218H119.313V32.0535H116.885V38.3308H116.154ZM126.463 38.39C125.943 38.39 125.46 38.3045 125.012 38.1334C124.571 37.9558 124.186 37.709 123.857 37.3932C123.535 37.0707 123.282 36.699 123.097 36.2779C122.92 35.8502 122.831 35.383 122.831 34.8763C122.831 34.3697 122.92 33.9058 123.097 33.4846C123.282 33.0569 123.535 32.6852 123.857 32.3693C124.186 32.0469 124.571 31.8002 125.012 31.6291C125.453 31.4514 125.937 31.3626 126.463 31.3626C126.983 31.3626 127.463 31.4514 127.904 31.6291C128.345 31.8002 128.727 32.0436 129.049 32.3595C129.378 32.6753 129.631 33.0471 129.809 33.4748C129.993 33.9025 130.085 34.3697 130.085 34.8763C130.085 35.383 129.993 35.8502 129.809 36.2779C129.631 36.7056 129.378 37.0773 129.049 37.3932C128.727 37.709 128.345 37.9558 127.904 38.1334C127.463 38.3045 126.983 38.39 126.463 38.39ZM126.463 37.7386C126.878 37.7386 127.259 37.6695 127.608 37.5313C127.963 37.3866 128.269 37.1859 128.526 36.9293C128.789 36.6661 128.993 36.3634 129.138 36.0212C129.283 35.6725 129.355 35.2909 129.355 34.8763C129.355 34.4618 129.283 34.0834 129.138 33.7413C128.993 33.3925 128.789 33.0898 128.526 32.8332C128.269 32.57 127.963 32.3693 127.608 32.2312C127.259 32.0864 126.878 32.014 126.463 32.014C126.049 32.014 125.664 32.0864 125.308 32.2312C124.953 32.3693 124.644 32.57 124.38 32.8332C124.124 33.0898 123.92 33.3925 123.769 33.7413C123.624 34.0834 123.551 34.4618 123.551 34.8763C123.551 35.2843 123.624 35.6626 123.769 36.0114C123.92 36.3601 124.124 36.6661 124.38 36.9293C124.644 37.1859 124.953 37.3866 125.308 37.5313C125.664 37.6695 126.049 37.7386 126.463 37.7386ZM134.782 38.3308V31.4218H135.513V37.6991H139.382V38.3308H134.782ZM146.539 38.39C146.019 38.39 145.536 38.3045 145.088 38.1334C144.648 37.9558 144.263 37.709 143.934 37.3932C143.611 37.0707 143.358 36.699 143.174 36.2779C142.996 35.8502 142.907 35.383 142.907 34.8763C142.907 34.3697 142.996 33.9058 143.174 33.4846C143.358 33.0569 143.611 32.6852 143.934 32.3693C144.263 32.0469 144.648 31.8002 145.088 31.6291C145.529 31.4514 146.013 31.3626 146.539 31.3626C147.059 31.3626 147.539 31.4514 147.98 31.6291C148.421 31.8002 148.803 32.0436 149.125 32.3595C149.454 32.6753 149.708 33.0471 149.885 33.4748C150.069 33.9025 150.162 34.3697 150.162 34.8763C150.162 35.383 150.069 35.8502 149.885 36.2779C149.708 36.7056 149.454 37.0773 149.125 37.3932C148.803 37.709 148.421 37.9558 147.98 38.1334C147.539 38.3045 147.059 38.39 146.539 38.39ZM146.539 37.7386C146.954 37.7386 147.335 37.6695 147.684 37.5313C148.039 37.3866 148.345 37.1859 148.602 36.9293C148.865 36.6661 149.069 36.3634 149.214 36.0212C149.359 35.6725 149.431 35.2909 149.431 34.8763C149.431 34.4618 149.359 34.0834 149.214 33.7413C149.069 33.3925 148.865 33.0898 148.602 32.8332C148.345 32.57 148.039 32.3693 147.684 32.2312C147.335 32.0864 146.954 32.014 146.539 32.014C146.125 32.014 145.74 32.0864 145.384 32.2312C145.029 32.3693 144.72 32.57 144.457 32.8332C144.2 33.0898 143.996 33.3925 143.845 33.7413C143.7 34.0834 143.628 34.4618 143.628 34.8763C143.628 35.2843 143.7 35.6626 143.845 36.0114C143.996 36.3601 144.2 36.6661 144.457 36.9293C144.72 37.1859 145.029 37.3866 145.384 37.5313C145.74 37.6695 146.125 37.7386 146.539 37.7386ZM157.888 38.39C157.362 38.39 156.875 38.3045 156.428 38.1334C155.987 37.9558 155.602 37.709 155.273 37.3932C154.95 37.0773 154.697 36.7056 154.513 36.2779C154.335 35.8502 154.246 35.383 154.246 34.8763C154.246 34.3697 154.335 33.9025 154.513 33.4748C154.697 33.0471 154.954 32.6753 155.283 32.3595C155.612 32.0436 155.997 31.8002 156.438 31.6291C156.885 31.4514 157.372 31.3626 157.898 31.3626C158.425 31.3626 158.905 31.4448 159.339 31.6093C159.78 31.7738 160.155 32.0239 160.465 32.3595L160.01 32.8234C159.721 32.5338 159.402 32.3266 159.053 32.2015C158.704 32.0765 158.329 32.014 157.928 32.014C157.5 32.014 157.105 32.0864 156.744 32.2312C156.388 32.3693 156.076 32.57 155.806 32.8332C155.543 33.0898 155.335 33.3925 155.184 33.7413C155.039 34.0834 154.967 34.4618 154.967 34.8763C154.967 35.2843 155.039 35.6626 155.184 36.0114C155.335 36.3601 155.543 36.6661 155.806 36.9293C156.076 37.1859 156.388 37.3866 156.744 37.5313C157.105 37.6695 157.497 37.7386 157.918 37.7386C158.313 37.7386 158.685 37.6794 159.033 37.561C159.389 37.4425 159.714 37.2418 160.01 36.9589L160.425 37.5116C160.096 37.8011 159.711 38.0216 159.27 38.1729C158.829 38.3177 158.369 38.39 157.888 38.39ZM159.724 37.4228V34.8763H160.425V37.5116L159.724 37.4228ZM165.552 38.3308V31.4218H166.282V38.3308H165.552ZM173.495 38.39C172.982 38.39 172.488 38.3078 172.014 38.1433C171.547 37.9722 171.185 37.7551 170.929 37.4919L171.215 36.9293C171.458 37.1662 171.784 37.3668 172.192 37.5313C172.607 37.6893 173.041 37.7682 173.495 37.7682C173.929 37.7682 174.281 37.7156 174.551 37.6103C174.827 37.4984 175.028 37.3504 175.153 37.1662C175.285 36.9819 175.35 36.7779 175.35 36.5542C175.35 36.2844 175.271 36.0673 175.114 35.9028C174.962 35.7383 174.761 35.61 174.511 35.5179C174.261 35.4192 173.985 35.3336 173.682 35.2612C173.38 35.1889 173.077 35.1132 172.774 35.0342C172.472 34.9487 172.192 34.8368 171.935 34.6987C171.685 34.5605 171.481 34.3795 171.323 34.1558C171.172 33.9255 171.096 33.6261 171.096 33.2576C171.096 32.9155 171.185 32.6029 171.363 32.32C171.547 32.0305 171.827 31.8002 172.202 31.6291C172.577 31.4514 173.057 31.3626 173.643 31.3626C174.031 31.3626 174.416 31.4185 174.798 31.5304C175.179 31.6357 175.508 31.7837 175.785 31.9745L175.538 32.5569C175.242 32.3595 174.926 32.2147 174.59 32.1226C174.261 32.0305 173.942 31.9844 173.633 31.9844C173.218 31.9844 172.876 32.0403 172.607 32.1522C172.337 32.2641 172.136 32.4154 172.004 32.6062C171.879 32.7905 171.817 33.001 171.817 33.2379C171.817 33.5077 171.893 33.7248 172.044 33.8893C172.202 34.0538 172.406 34.1821 172.656 34.2742C172.913 34.3664 173.192 34.4486 173.495 34.521C173.798 34.5934 174.097 34.6723 174.393 34.7579C174.696 34.8434 174.972 34.9553 175.222 35.0935C175.479 35.2251 175.683 35.4027 175.834 35.6264C175.992 35.8502 176.071 36.143 176.071 36.5049C176.071 36.8404 175.979 37.153 175.795 37.4425C175.61 37.7255 175.327 37.9558 174.946 38.1334C174.571 38.3045 174.087 38.39 173.495 38.39ZM181.968 38.3308V32.0535H179.54V31.4218H185.126V32.0535H182.698V38.3308H181.968ZM187.9 38.3308L191.059 31.4218H191.779L194.938 38.3308H194.168L191.266 31.8462H191.562L188.66 38.3308H187.9ZM189.144 36.4851L189.361 35.8929H193.378L193.595 36.4851H189.144Z" fill="#2B2B2B"/>
</svg>
