<svg width="24" height="24" viewBox="0 0 24 24" fill="none" xmlns="http://www.w3.org/2000/svg">
<path d="M2.41428 11.9942C3.18561 12.2876 3.96957 12.4645 4.72214 12.767C5.48616 13.0741 6.18283 13.4772 6.86605 13.9148C7.55457 14.3558 8.17502 14.8866 8.75063 15.4643C9.33924 16.0549 9.83233 16.7262 10.2925 17.4178C10.7443 18.0967 11.1189 18.8227 11.3947 19.5886C11.399 19.6006 11.4033 19.6125 11.4076 19.6245C11.6695 20.352 11.9328 21.0836 11.9975 21.866C12.2705 20.2389 12.8767 18.7529 13.7578 17.3734C14.6455 15.9838 15.7783 14.8296 17.1472 13.9062C18.5015 12.9923 19.9994 12.4046 21.5997 12.0015C19.9911 11.6281 18.5034 11.0357 17.1449 10.1188C15.7565 9.18176 14.6189 8.01388 13.7193 6.61226C12.8372 5.23796 12.252 3.74743 12.0086 2.12126C11.5938 4.61061 10.5102 6.75134 8.75595 8.54366C7.00494 10.3326 4.88922 11.4782 2.41428 11.9942ZM11.9536 0C12.1786 0.108127 12.1648 0.252865 12.166 0.39251C12.1784 1.85735 12.4835 3.27346 13.0345 4.61788C13.5276 5.82111 14.22 6.91549 15.0969 7.90356C15.7726 8.66509 16.5253 9.32068 17.3595 9.8818C18.5747 10.6994 19.9088 11.27 21.3481 11.5777C21.854 11.686 22.3573 11.8045 22.8852 11.8056C23.2567 11.8064 23.6291 11.8926 23.9997 11.9406C24.007 12.1499 23.8853 12.2055 23.7353 12.2114C23.491 12.2209 23.2457 12.2225 23.0014 12.2163C22.3344 12.1994 21.7022 12.3849 21.0608 12.525C20.2958 12.6921 19.5556 12.9416 18.8639 13.2902C18.17 13.64 17.4912 14.0417 16.8687 14.5045C15.7604 15.3284 14.8304 16.336 14.057 17.4837C13.3334 18.5573 12.857 19.7422 12.5041 20.9738C12.3586 21.4816 12.3316 22.0246 12.2677 22.5536C12.2181 22.9641 12.1999 23.3784 12.1548 23.7896C12.1467 23.8641 12.0761 23.9318 12.0359 24C11.7856 23.9087 11.8386 23.715 11.838 23.5512C11.8346 22.7198 11.7062 21.9002 11.513 21.0991C11.2284 19.9197 10.7713 18.8028 10.1289 17.7626C9.71686 17.0955 9.22442 16.5001 8.70507 15.9143C8.20641 15.3518 7.64415 14.8639 7.04932 14.4257C6.41285 13.9568 5.72478 13.5589 4.99097 13.2291C4.163 12.8569 3.30703 12.6053 2.4323 12.4013C2.03072 12.3078 1.6155 12.2636 1.20384 12.225C0.909038 12.1973 0.609746 12.216 0.312466 12.2139C0.140264 12.2127 -0.000278656 12.1734 4.14888e-07 11.9375C0.376421 11.8902 0.748915 11.8231 1.12424 11.8002C2.3463 11.7256 3.50247 11.4047 4.63504 10.9548C5.41534 10.6449 6.12527 10.2157 6.83704 9.78615C7.0581 9.6527 7.25629 9.47826 7.45346 9.30938C8.27201 8.60815 9.02797 7.85565 9.65702 6.96887C10.1918 6.21482 10.6498 5.42196 10.9857 4.57344C11.2745 3.84325 11.5445 3.09767 11.6409 2.30071C11.7214 1.63364 11.8495 0.973136 11.8423 0.296782C11.8414 0.206419 11.9084 0.115233 11.9536 0Z" fill="#600952"/>
<path d="M2.41428 11.9942C3.18561 12.2876 3.96957 12.4645 4.72214 12.767C5.48616 13.0741 6.18283 13.4772 6.86605 13.9148C7.55457 14.3558 8.17502 14.8866 8.75063 15.4643C9.33924 16.0549 9.83233 16.7262 10.2925 17.4178C10.7443 18.0967 11.1189 18.8227 11.3947 19.5886L11.4076 19.6245C11.6695 20.352 11.9328 21.0836 11.9975 21.866C12.2705 20.2389 12.8767 18.7529 13.7578 17.3734C14.6455 15.9838 15.7783 14.8296 17.1472 13.9062C18.5015 12.9923 19.9994 12.4046 21.5997 12.0015C19.9911 11.6281 18.5034 11.0357 17.1449 10.1188C15.7565 9.18176 14.6189 8.01388 13.7193 6.61226C12.8372 5.23796 12.252 3.74743 12.0086 2.12126C11.5938 4.61061 10.5102 6.75134 8.75595 8.54366C7.00494 10.3326 4.88922 11.4782 2.41428 11.9942Z" fill="#600952"/>
</svg>
