<svg width="133" height="20" viewBox="0 0 133 20" fill="none" xmlns="http://www.w3.org/2000/svg">
<path d="M10.5 0L12.7451 6.90983H20.0106L14.1327 11.1803L16.3779 18.0902L10.5 13.8197L4.62215 18.0902L6.86729 11.1803L0.989435 6.90983H8.25486L10.5 0Z" fill="#FFCC00"/>
<path d="M38.5 0L40.7451 6.90983H48.0106L42.1327 11.1803L44.3779 18.0902L38.5 13.8197L32.6221 18.0902L34.8673 11.1803L28.9894 6.90983H36.2549L38.5 0Z" fill="#FFCC00"/>
<path d="M66.5 0L68.7451 6.90983H76.0106L70.1327 11.1803L72.3779 18.0902L66.5 13.8197L60.6221 18.0902L62.8673 11.1803L56.9894 6.90983H64.2549L66.5 0Z" fill="#FFCC00"/>
<path d="M94.5 0L96.7451 6.90983H104.011L98.1327 11.1803L100.378 18.0902L94.5 13.8197L88.6221 18.0902L90.8673 11.1803L84.9894 6.90983H92.2549L94.5 0Z" fill="#FFCC00"/>
<path d="M122.5 0L124.745 6.90983H132.011L126.133 11.1803L128.378 18.0902L122.5 13.8197L116.622 18.0902L118.867 11.1803L112.989 6.90983H120.255L122.5 0Z" fill="#FFCC00"/>
</svg>
